# This file uses centimeters as units for non-parametric coordinates.

v 0.052573 -0.262866 -0.161803
v -0.137638 -0.262866 -0.100000
v -0.137638 -0.262866 0.100000
v 0.052573 -0.262866 0.161803
v 0.170130 -0.262866 0.000000
v 0.105146 -0.262866 -0.323607
v -0.275276 -0.262866 -0.200000
v -0.275276 -0.262866 0.200000
v 0.105146 -0.262866 0.323607
v 0.340260 -0.262866 0.000000
v 0.157719 -0.262866 -0.485410
v -0.412915 -0.262866 -0.300000
v -0.412915 -0.262866 0.300000
v 0.157719 -0.262866 0.485410
v 0.510391 -0.262866 0.000000
v 0.210293 -0.262866 -0.647214
v -0.550553 -0.262866 -0.400000
v -0.550553 -0.262866 0.400000
v 0.210292 -0.262866 0.647214
v 0.680521 -0.262866 0.000000
v 0.262866 -0.262866 -0.809017
v -0.688191 -0.262866 -0.500000
v -0.688191 -0.262866 0.500000
v 0.262866 -0.262866 0.809017
v 0.850651 -0.262866 0.000000
v 0.230007 -0.197149 -0.707890
v -0.602167 -0.197149 -0.437500
v -0.602167 -0.197149 0.437500
v 0.230007 -0.197149 0.707890
v 0.744319 -0.197149 0.000000
v 0.197149 -0.131433 -0.606763
v -0.516143 -0.131433 -0.375000
v -0.516143 -0.131433 0.375000
v 0.197149 -0.131433 0.606763
v 0.637988 -0.131433 0.000000
v 0.164291 -0.065716 -0.505636
v -0.430119 -0.065716 -0.312500
v -0.430119 -0.065716 0.312500
v 0.164291 -0.065716 0.505636
v 0.531657 -0.065716 0.000000
v 0.131433 0.000000 -0.404509
v -0.344095 0.000000 -0.250000
v -0.344095 0.000000 0.250000
v 0.131433 0.000000 0.404509
v 0.425325 0.000000 0.000000
v 0.098575 0.065716 -0.303381
v -0.258072 0.065716 -0.187500
v -0.258072 0.065716 0.187500
v 0.098575 0.065716 0.303381
v 0.318994 0.065716 0.000000
v 0.065716 0.131433 -0.202254
v -0.172048 0.131433 -0.125000
v -0.172048 0.131433 0.125000
v 0.065716 0.131433 0.202254
v 0.212663 0.131433 0.000000
v 0.032858 0.197149 -0.101127
v -0.086024 0.197149 -0.062500
v -0.086024 0.197149 0.062500
v 0.032858 0.197149 0.101127
v 0.106331 0.197149 0.000000
v 0.000000 -0.262866 0.000000
v 0.000000 0.262866 0.000000
vt 0.515451 0.202447
vt 0.459549 0.220611
vt 0.459549 0.279389
vt 0.515451 0.297553
vt 0.550000 0.250000
vt 0.530902 0.154894
vt 0.419098 0.191221
vt 0.419098 0.308779
vt 0.530902 0.345106
vt 0.600000 0.250000
vt 0.546353 0.107341
vt 0.378647 0.161832
vt 0.378647 0.338168
vt 0.546353 0.392658
vt 0.650000 0.250000
vt 0.561803 0.059789
vt 0.338197 0.132443
vt 0.338197 0.367557
vt 0.561803 0.440211
vt 0.700000 0.250000
vt 0.577254 0.012236
vt 0.297746 0.103054
vt 0.297746 0.396946
vt 0.577254 0.487764
vt 0.750000 0.250000
vt 0.250000 0.500000
vt 0.350000 0.500000
vt 0.450000 0.500000
vt 0.550000 0.500000
vt 0.650000 0.500000
vt 0.750000 0.500000
vt 0.281250 0.562500
vt 0.368750 0.562500
vt 0.456250 0.562500
vt 0.543750 0.562500
vt 0.631250 0.562500
vt 0.718750 0.562500
vt 0.312500 0.625000
vt 0.387500 0.625000
vt 0.462500 0.625000
vt 0.537500 0.625000
vt 0.612500 0.625000
vt 0.687500 0.625000
vt 0.343750 0.687500
vt 0.406250 0.687500
vt 0.468750 0.687500
vt 0.531250 0.687500
vt 0.593750 0.687500
vt 0.656250 0.687500
vt 0.375000 0.750000
vt 0.425000 0.750000
vt 0.475000 0.750000
vt 0.525000 0.750000
vt 0.575000 0.750000
vt 0.625000 0.750000
vt 0.406250 0.812500
vt 0.443750 0.812500
vt 0.481250 0.812500
vt 0.518750 0.812500
vt 0.556250 0.812500
vt 0.593750 0.812500
vt 0.437500 0.875000
vt 0.462500 0.875000
vt 0.487500 0.875000
vt 0.512500 0.875000
vt 0.537500 0.875000
vt 0.562500 0.875000
vt 0.468750 0.937500
vt 0.481250 0.937500
vt 0.493750 0.937500
vt 0.506250 0.937500
vt 0.518750 0.937500
vt 0.531250 0.937500
vt 0.500000 0.250000
vt 0.500000 1.000000
vn 0.000000 -1.000000 -0.000000
vn 0.000000 -1.000000 -0.000000
vn 0.000000 -1.000000 -0.000000
vn 0.000000 -1.000000 -0.000000
vn 0.000000 -1.000000 -0.000000
vn 0.000000 -1.000000 0.000000
vn 0.000000 -1.000000 -0.000000
vn 0.000000 -1.000000 -0.000000
vn 0.000000 -1.000000 -0.000000
vn 0.000000 -1.000000 -0.000000
vn 0.000000 -1.000000 -0.000000
vn 0.000000 -1.000000 -0.000000
vn 0.000000 -1.000000 -0.000000
vn 0.000000 -1.000000 -0.000000
vn 0.000000 -1.000000 0.000000
vn 0.000000 -1.000000 -0.000000
vn 0.000000 -1.000000 -0.000000
vn 0.000000 -1.000000 0.000000
vn 0.000000 -1.000000 0.000000
vn 0.000000 -1.000000 0.000000
vn 0.000000 -1.000000 -0.000000
vn 0.000000 -1.000000 -0.000000
vn 0.000000 -1.000000 0.000000
vn 0.000000 -1.000000 0.000000
vn 0.000000 -1.000000 0.000000
vn -0.187592 0.794655 -0.577350
vn -0.187592 0.794655 -0.577350
vn -0.187592 0.794655 -0.577350
vn -0.187592 0.794655 -0.577350
vn -0.607062 0.794654 -0.000000
vn -0.607062 0.794654 -0.000000
vn -0.607062 0.794654 -0.000000
vn -0.607062 0.794654 -0.000000
vn -0.187592 0.794655 0.577350
vn -0.187592 0.794655 0.577350
vn -0.187592 0.794654 0.577350
vn -0.187593 0.794655 0.577350
vn 0.491123 0.794654 0.356822
vn 0.491123 0.794654 0.356822
vn 0.491124 0.794655 0.356822
vn 0.491124 0.794655 0.356822
vn 0.491124 0.794655 -0.356822
vn 0.491124 0.794655 -0.356822
vn 0.491123 0.794654 -0.356822
vn 0.491123 0.794654 -0.356822
vn -0.187592 0.794654 -0.577350
vn -0.187592 0.794654 -0.577350
vn -0.607062 0.794655 -0.000000
vn -0.607062 0.794655 -0.000000
vn -0.187593 0.794654 0.577350
vn -0.187592 0.794654 0.577350
vn 0.491124 0.794654 0.356822
vn 0.491124 0.794654 0.356822
vn 0.491123 0.794655 -0.356822
vn 0.491123 0.794655 -0.356822
vn -0.187592 0.794654 -0.577350
vn -0.187592 0.794654 -0.577350
vn -0.607062 0.794654 -0.000000
vn -0.607062 0.794654 -0.000000
vn -0.187592 0.794655 0.577350
vn -0.187592 0.794655 0.577350
vn 0.491123 0.794654 0.356822
vn 0.491123 0.794654 0.356822
vn 0.491123 0.794655 -0.356822
vn 0.491123 0.794655 -0.356822
vn -0.187592 0.794655 -0.577350
vn -0.187592 0.794655 -0.577350
vn -0.607062 0.794654 -0.000000
vn -0.607062 0.794654 -0.000000
vn -0.187592 0.794655 0.577350
vn -0.187592 0.794655 0.577350
vn 0.491124 0.794654 0.356822
vn 0.491123 0.794654 0.356822
vn 0.491124 0.794655 -0.356822
vn 0.491124 0.794655 -0.356822
vn -0.187592 0.794654 -0.577350
vn -0.187592 0.794654 -0.577350
vn -0.607062 0.794654 -0.000000
vn -0.607062 0.794654 -0.000000
vn -0.187592 0.794654 0.577350
vn -0.187592 0.794654 0.577350
vn 0.491124 0.794655 0.356822
vn 0.491124 0.794655 0.356822
vn 0.491123 0.794654 -0.356822
vn 0.491123 0.794655 -0.356822
vn -0.187592 0.794655 -0.577350
vn -0.187592 0.794655 -0.577350
vn -0.607062 0.794654 -0.000000
vn -0.607062 0.794654 -0.000000
vn -0.187592 0.794655 0.577350
vn -0.187592 0.794655 0.577350
vn 0.491123 0.794654 0.356822
vn 0.491123 0.794654 0.356822
vn 0.491123 0.794654 -0.356822
vn 0.491123 0.794655 -0.356822
vn -0.187592 0.794655 -0.577350
vn -0.187592 0.794655 -0.577350
vn -0.607062 0.794654 -0.000000
vn -0.607062 0.794654 -0.000000
vn -0.187593 0.794655 0.577350
vn -0.187593 0.794655 0.577350
vn 0.491124 0.794654 0.356822
vn 0.491124 0.794654 0.356822
vn 0.491123 0.794655 -0.356822
vn 0.491123 0.794655 -0.356822
vn 0.000000 -1.000000 -0.000000
vn -0.187592 0.794655 -0.577350
vn -0.607062 0.794654 0.000000
vn -0.187593 0.794654 0.577350
vn 0.491124 0.794655 0.356822
vn 0.491123 0.794655 -0.356822
f 1/1/1 2/2/2 7/7/3 6/6/4
f 2/2/2 3/3/5 8/8/6 7/7/3
f 3/3/5 4/4/7 9/9/8 8/8/6
f 4/4/7 5/5/9 10/10/10 9/9/8
f 5/5/9 1/1/1 6/6/4 10/10/10
f 6/6/4 7/7/3 12/12/11 11/11/12
f 7/7/3 8/8/6 13/13/13 12/12/11
f 8/8/6 9/9/8 14/14/14 13/13/13
f 9/9/8 10/10/10 15/15/15 14/14/14
f 10/10/10 6/6/4 11/11/12 15/15/15
f 11/11/12 12/12/11 17/17/16 16/16/17
f 12/12/11 13/13/13 18/18/18 17/17/16
f 13/13/13 14/14/14 19/19/19 18/18/18
f 14/14/14 15/15/15 20/20/20 19/19/19
f 15/15/15 11/11/12 16/16/17 20/20/20
f 16/16/17 17/17/16 22/22/21 21/21/22
f 17/17/16 18/18/18 23/23/23 22/22/21
f 18/18/18 19/19/19 24/24/24 23/23/23
f 19/19/19 20/20/20 25/25/25 24/24/24
f 20/20/20 16/16/17 21/21/22 25/25/25
f 21/26/26 22/27/27 27/33/28 26/32/29
f 22/27/30 23/28/31 28/34/32 27/33/33
f 23/28/34 24/29/35 29/35/36 28/34/37
f 24/29/38 25/30/39 30/36/40 29/35/41
f 25/30/42 21/31/43 26/37/44 30/36/45
f 26/32/29 27/33/28 32/39/46 31/38/47
f 27/33/33 28/34/32 33/40/48 32/39/49
f 28/34/37 29/35/36 34/41/50 33/40/51
f 29/35/41 30/36/40 35/42/52 34/41/53
f 30/36/45 26/37/44 31/43/54 35/42/55
f 31/38/47 32/39/46 37/45/56 36/44/57
f 32/39/49 33/40/48 38/46/58 37/45/59
f 33/40/51 34/41/50 39/47/60 38/46/61
f 34/41/53 35/42/52 40/48/62 39/47/63
f 35/42/55 31/43/54 36/49/64 40/48/65
f 36/44/57 37/45/56 42/51/66 41/50/67
f 37/45/59 38/46/58 43/52/68 42/51/69
f 38/46/61 39/47/60 44/53/70 43/52/71
f 39/47/63 40/48/62 45/54/72 44/53/73
f 40/48/65 36/49/64 41/55/74 45/54/75
f 41/50/67 42/51/66 47/57/76 46/56/77
f 42/51/69 43/52/68 48/58/78 47/57/79
f 43/52/71 44/53/70 49/59/80 48/58/81
f 44/53/73 45/54/72 50/60/82 49/59/83
f 45/54/75 41/55/74 46/61/84 50/60/85
f 46/56/77 47/57/76 52/63/86 51/62/87
f 47/57/79 48/58/78 53/64/88 52/63/89
f 48/58/81 49/59/80 54/65/90 53/64/91
f 49/59/83 50/60/82 55/66/92 54/65/93
f 50/60/85 46/61/84 51/67/94 55/66/95
f 51/62/87 52/63/86 57/69/96 56/68/97
f 52/63/89 53/64/88 58/70/98 57/69/99
f 53/64/91 54/65/90 59/71/100 58/70/101
f 54/65/93 55/66/92 60/72/102 59/71/103
f 55/66/95 51/67/94 56/73/104 60/72/105
f 2/2/2 1/1/1 61/74/106
f 3/3/5 2/2/2 61/74/106
f 4/4/7 3/3/5 61/74/106
f 5/5/9 4/4/7 61/74/106
f 1/1/1 5/5/9 61/74/106
f 56/68/97 57/69/96 62/75/107
f 57/69/99 58/70/98 62/75/108
f 58/70/101 59/71/100 62/75/109
f 59/71/103 60/72/102 62/75/110
f 60/72/105 56/73/104 62/75/111
v 0.052573 -0.262866 -0.161803
v -0.137638 -0.262866 -0.100000
v -0.137638 -0.262866 0.100000
v 0.052573 -0.262866 0.161803
v 0.170130 -0.262866 0.000000
v 0.105146 -0.262866 -0.323607
v -0.275276 -0.262866 -0.200000
v -0.275276 -0.262866 0.200000
v 0.105146 -0.262866 0.323607
v 0.340260 -0.262866 0.000000
v 0.157719 -0.262866 -0.485410
v -0.412915 -0.262866 -0.300000
v -0.412915 -0.262866 0.300000
v 0.157719 -0.262866 0.485410
v 0.510391 -0.262866 0.000000
v 0.210293 -0.262866 -0.647214
v -0.550553 -0.262866 -0.400000
v -0.550553 -0.262866 0.400000
v 0.210292 -0.262866 0.647214
v 0.680521 -0.262866 0.000000
v 0.262866 -0.262866 -0.809017
v -0.688191 -0.262866 -0.500000
v -0.688191 -0.262866 0.500000
v 0.262866 -0.262866 0.809017
v 0.850651 -0.262866 0.000000
v 0.230007 -0.197149 -0.707890
v -0.602167 -0.197149 -0.437500
v -0.602167 -0.197149 0.437500
v 0.230007 -0.197149 0.707890
v 0.744319 -0.197149 0.000000
v 0.197149 -0.131433 -0.606763
v -0.516143 -0.131433 -0.375000
v -0.516143 -0.131433 0.375000
v 0.197149 -0.131433 0.606763
v 0.637988 -0.131433 0.000000
v 0.164291 -0.065716 -0.505636
v -0.430119 -0.065716 -0.312500
v -0.430119 -0.065716 0.312500
v 0.164291 -0.065716 0.505636
v 0.531657 -0.065716 0.000000
v 0.131433 0.000000 -0.404509
v -0.344095 0.000000 -0.250000
v -0.344095 0.000000 0.250000
v 0.131433 0.000000 0.404509
v 0.425325 0.000000 0.000000
v 0.098575 0.065716 -0.303381
v -0.258072 0.065716 -0.187500
v -0.258072 0.065716 0.187500
v 0.098575 0.065716 0.303381
v 0.318994 0.065716 0.000000
v 0.065716 0.131433 -0.202254
v -0.172048 0.131433 -0.125000
v -0.172048 0.131433 0.125000
v 0.065716 0.131433 0.202254
v 0.212663 0.131433 0.000000
v 0.032858 0.197149 -0.101127
v -0.086024 0.197149 -0.062500
v -0.086024 0.197149 0.062500
v 0.032858 0.197149 0.101127
v 0.106331 0.197149 0.000000
v 0.000000 -0.262866 0.000000
v 0.000000 0.262866 0.000000
vt 0.515451 0.202447
vt 0.459549 0.220611
vt 0.459549 0.279389
vt 0.515451 0.297553
vt 0.550000 0.250000
vt 0.530902 0.154894
vt 0.419098 0.191221
vt 0.419098 0.308779
vt 0.530902 0.345106
vt 0.600000 0.250000
vt 0.546353 0.107341
vt 0.378647 0.161832
vt 0.378647 0.338168
vt 0.546353 0.392658
vt 0.650000 0.250000
vt 0.561803 0.059789
vt 0.338197 0.132443
vt 0.338197 0.367557
vt 0.561803 0.440211
vt 0.700000 0.250000
vt 0.577254 0.012236
vt 0.297746 0.103054
vt 0.297746 0.396946
vt 0.577254 0.487764
vt 0.750000 0.250000
vt 0.250000 0.500000
vt 0.350000 0.500000
vt 0.450000 0.500000
vt 0.550000 0.500000
vt 0.650000 0.500000
vt 0.750000 0.500000
vt 0.281250 0.562500
vt 0.368750 0.562500
vt 0.456250 0.562500
vt 0.543750 0.562500
vt 0.631250 0.562500
vt 0.718750 0.562500
vt 0.312500 0.625000
vt 0.387500 0.625000
vt 0.462500 0.625000
vt 0.537500 0.625000
vt 0.612500 0.625000
vt 0.687500 0.625000
vt 0.343750 0.687500
vt 0.406250 0.687500
vt 0.468750 0.687500
vt 0.531250 0.687500
vt 0.593750 0.687500
vt 0.656250 0.687500
vt 0.375000 0.750000
vt 0.425000 0.750000
vt 0.475000 0.750000
vt 0.525000 0.750000
vt 0.575000 0.750000
vt 0.625000 0.750000
vt 0.406250 0.812500
vt 0.443750 0.812500
vt 0.481250 0.812500
vt 0.518750 0.812500
vt 0.556250 0.812500
vt 0.593750 0.812500
vt 0.437500 0.875000
vt 0.462500 0.875000
vt 0.487500 0.875000
vt 0.512500 0.875000
vt 0.537500 0.875000
vt 0.562500 0.875000
vt 0.468750 0.937500
vt 0.481250 0.937500
vt 0.493750 0.937500
vt 0.506250 0.937500
vt 0.518750 0.937500
vt 0.531250 0.937500
vt 0.500000 0.250000
vt 0.500000 1.000000
vn 0.000000 -1.000000 -0.000000
vn 0.000000 -1.000000 -0.000000
vn 0.000000 -1.000000 -0.000000
vn 0.000000 -1.000000 -0.000000
vn 0.000000 -1.000000 -0.000000
vn 0.000000 -1.000000 0.000000
vn 0.000000 -1.000000 -0.000000
vn 0.000000 -1.000000 -0.000000
vn 0.000000 -1.000000 -0.000000
vn 0.000000 -1.000000 -0.000000
vn 0.000000 -1.000000 -0.000000
vn 0.000000 -1.000000 -0.000000
vn 0.000000 -1.000000 -0.000000
vn 0.000000 -1.000000 -0.000000
vn 0.000000 -1.000000 0.000000
vn 0.000000 -1.000000 -0.000000
vn 0.000000 -1.000000 -0.000000
vn 0.000000 -1.000000 0.000000
vn 0.000000 -1.000000 0.000000
vn 0.000000 -1.000000 0.000000
vn 0.000000 -1.000000 -0.000000
vn 0.000000 -1.000000 -0.000000
vn 0.000000 -1.000000 0.000000
vn 0.000000 -1.000000 0.000000
vn 0.000000 -1.000000 0.000000
vn -0.187592 0.794655 -0.577350
vn -0.187592 0.794655 -0.577350
vn -0.187592 0.794655 -0.577350
vn -0.187592 0.794655 -0.577350
vn -0.607062 0.794654 -0.000000
vn -0.607062 0.794654 -0.000000
vn -0.607062 0.794654 -0.000000
vn -0.607062 0.794654 -0.000000
vn -0.187592 0.794655 0.577350
vn -0.187592 0.794655 0.577350
vn -0.187592 0.794654 0.577350
vn -0.187593 0.794655 0.577350
vn 0.491123 0.794654 0.356822
vn 0.491123 0.794654 0.356822
vn 0.491124 0.794655 0.356822
vn 0.491124 0.794655 0.356822
vn 0.491124 0.794655 -0.356822
vn 0.491124 0.794655 -0.356822
vn 0.491123 0.794654 -0.356822
vn 0.491123 0.794654 -0.356822
vn -0.187592 0.794654 -0.577350
vn -0.187592 0.794654 -0.577350
vn -0.607062 0.794655 -0.000000
vn -0.607062 0.794655 -0.000000
vn -0.187593 0.794654 0.577350
vn -0.187592 0.794654 0.577350
vn 0.491124 0.794654 0.356822
vn 0.491124 0.794654 0.356822
vn 0.491123 0.794655 -0.356822
vn 0.491123 0.794655 -0.356822
vn -0.187592 0.794654 -0.577350
vn -0.187592 0.794654 -0.577350
vn -0.607062 0.794654 -0.000000
vn -0.607062 0.794654 -0.000000
vn -0.187592 0.794655 0.577350
vn -0.187592 0.794655 0.577350
vn 0.491123 0.794654 0.356822
vn 0.491123 0.794654 0.356822
vn 0.491123 0.794655 -0.356822
vn 0.491123 0.794655 -0.356822
vn -0.187592 0.794655 -0.577350
vn -0.187592 0.794655 -0.577350
vn -0.607062 0.794654 -0.000000
vn -0.607062 0.794654 -0.000000
vn -0.187592 0.794655 0.577350
vn -0.187592 0.794655 0.577350
vn 0.491124 0.794654 0.356822
vn 0.491123 0.794654 0.356822
vn 0.491124 0.794655 -0.356822
vn 0.491124 0.794655 -0.356822
vn -0.187592 0.794654 -0.577350
vn -0.187592 0.794654 -0.577350
vn -0.607062 0.794654 -0.000000
vn -0.607062 0.794654 -0.000000
vn -0.187592 0.794654 0.577350
vn -0.187592 0.794654 0.577350
vn 0.491124 0.794655 0.356822
vn 0.491124 0.794655 0.356822
vn 0.491123 0.794654 -0.356822
vn 0.491123 0.794655 -0.356822
vn -0.187592 0.794655 -0.577350
vn -0.187592 0.794655 -0.577350
vn -0.607062 0.794654 -0.000000
vn -0.607062 0.794654 -0.000000
vn -0.187592 0.794655 0.577350
vn -0.187592 0.794655 0.577350
vn 0.491123 0.794654 0.356822
vn 0.491123 0.794654 0.356822
vn 0.491123 0.794654 -0.356822
vn 0.491123 0.794655 -0.356822
vn -0.187592 0.794655 -0.577350
vn -0.187592 0.794655 -0.577350
vn -0.607062 0.794654 -0.000000
vn -0.607062 0.794654 -0.000000
vn -0.187593 0.794655 0.577350
vn -0.187593 0.794655 0.577350
vn 0.491124 0.794654 0.356822
vn 0.491124 0.794654 0.356822
vn 0.491123 0.794655 -0.356822
vn 0.491123 0.794655 -0.356822
vn 0.000000 -1.000000 -0.000000
vn -0.187592 0.794655 -0.577350
vn -0.607062 0.794654 0.000000
vn -0.187593 0.794654 0.577350
vn 0.491124 0.794655 0.356822
vn 0.491123 0.794655 -0.356822
f 63/76/112 64/77/113 69/82/114 68/81/115
f 64/77/113 65/78/116 70/83/117 69/82/114
f 65/78/116 66/79/118 71/84/119 70/83/117
f 66/79/118 67/80/120 72/85/121 71/84/119
f 67/80/120 63/76/112 68/81/115 72/85/121
f 68/81/115 69/82/114 74/87/122 73/86/123
f 69/82/114 70/83/117 75/88/124 74/87/122
f 70/83/117 71/84/119 76/89/125 75/88/124
f 71/84/119 72/85/121 77/90/126 76/89/125
f 72/85/121 68/81/115 73/86/123 77/90/126
f 73/86/123 74/87/122 79/92/127 78/91/128
f 74/87/122 75/88/124 80/93/129 79/92/127
f 75/88/124 76/89/125 81/94/130 80/93/129
f 76/89/125 77/90/126 82/95/131 81/94/130
f 77/90/126 73/86/123 78/91/128 82/95/131
f 78/91/128 79/92/127 84/97/132 83/96/133
f 79/92/127 80/93/129 85/98/134 84/97/132
f 80/93/129 81/94/130 86/99/135 85/98/134
f 81/94/130 82/95/131 87/100/136 86/99/135
f 82/95/131 78/91/128 83/96/133 87/100/136
f 83/101/137 84/102/138 89/108/139 88/107/140
f 84/102/141 85/103/142 90/109/143 89/108/144
f 85/103/145 86/104/146 91/110/147 90/109/148
f 86/104/149 87/105/150 92/111/151 91/110/152
f 87/105/153 83/106/154 88/112/155 92/111/156
f 88/107/140 89/108/139 94/114/157 93/113/158
f 89/108/144 90/109/143 95/115/159 94/114/160
f 90/109/148 91/110/147 96/116/161 95/115/162
f 91/110/152 92/111/151 97/117/163 96/116/164
f 92/111/156 88/112/155 93/118/165 97/117/166
f 93/113/158 94/114/157 99/120/167 98/119/168
f 94/114/160 95/115/159 100/121/169 99/120/170
f 95/115/162 96/116/161 101/122/171 100/121/172
f 96/116/164 97/117/163 102/123/173 101/122/174
f 97/117/166 93/118/165 98/124/175 102/123/176
f 98/119/168 99/120/167 104/126/177 103/125/178
f 99/120/170 100/121/169 105/127/179 104/126/180
f 100/121/172 101/122/171 106/128/181 105/127/182
f 101/122/174 102/123/173 107/129/183 106/128/184
f 102/123/176 98/124/175 103/130/185 107/129/186
f 103/125/178 104/126/177 109/132/187 108/131/188
f 104/126/180 105/127/179 110/133/189 109/132/190
f 105/127/182 106/128/181 111/134/191 110/133/192
f 106/128/184 107/129/183 112/135/193 111/134/194
f 107/129/186 103/130/185 108/136/195 112/135/196
f 108/131/188 109/132/187 114/138/197 113/137/198
f 109/132/190 110/133/189 115/139/199 114/138/200
f 110/133/192 111/134/191 116/140/201 115/139/202
f 111/134/194 112/135/193 117/141/203 116/140/204
f 112/135/196 108/136/195 113/142/205 117/141/206
f 113/137/198 114/138/197 119/144/207 118/143/208
f 114/138/200 115/139/199 120/145/209 119/144/210
f 115/139/202 116/140/201 121/146/211 120/145/212
f 116/140/204 117/141/203 122/147/213 121/146/214
f 117/141/206 113/142/205 118/148/215 122/147/216
f 64/77/113 63/76/112 123/149/217
f 65/78/116 64/77/113 123/149/217
f 66/79/118 65/78/116 123/149/217
f 67/80/120 66/79/118 123/149/217
f 63/76/112 67/80/120 123/149/217
f 118/143/208 119/144/207 124/150/218
f 119/144/210 120/145/209 124/150/219
f 120/145/212 121/146/211 124/150/220
f 121/146/214 122/147/213 124/150/221
f 122/147/216 118/148/215 124/150/222
