# This file uses centimeters as units for non-parametric coordinates.

v 0.000000 0.000000 -0.141421
v -0.141421 0.000000 -0.000000
v -0.000000 0.000000 0.141421
v 0.141421 0.000000 0.000000
v 0.000000 0.000000 -0.282843
v -0.282843 0.000000 -0.000000
v -0.000000 0.000000 0.282843
v 0.282843 0.000000 0.000000
v 0.000000 0.000000 -0.424264
v -0.424264 0.000000 -0.000000
v -0.000000 0.000000 0.424264
v 0.424264 0.000000 0.000000
v 0.000000 0.000000 -0.565685
v -0.565685 0.000000 -0.000000
v -0.000000 0.000000 0.565685
v 0.565685 0.000000 0.000000
v 0.000000 0.000000 -0.707107
v -0.707107 0.000000 -0.000000
v -0.000000 0.000000 0.707107
v 0.707107 0.000000 0.000000
v 0.000000 0.070711 -0.636396
v -0.636396 0.070711 -0.000000
v -0.000000 0.070711 0.636396
v 0.636396 0.070711 0.000000
v 0.000000 0.141421 -0.565685
v -0.565685 0.141421 -0.000000
v -0.000000 0.141421 0.565685
v 0.565685 0.141421 0.000000
v 0.000000 0.212132 -0.494975
v -0.494975 0.212132 -0.000000
v -0.000000 0.212132 0.494975
v 0.494975 0.212132 0.000000
v 0.000000 0.282843 -0.424264
v -0.424264 0.282843 -0.000000
v -0.000000 0.282843 0.424264
v 0.424264 0.282843 0.000000
v 0.000000 0.353553 -0.353553
v -0.353553 0.353553 -0.000000
v -0.000000 0.353553 0.353553
v 0.353553 0.353553 0.000000
v 0.000000 0.424264 -0.282843
v -0.282843 0.424264 -0.000000
v -0.000000 0.424264 0.282843
v 0.282843 0.424264 0.000000
v 0.000000 0.494975 -0.212132
v -0.212132 0.494975 -0.000000
v -0.000000 0.494975 0.212132
v 0.212132 0.494975 0.000000
v 0.000000 0.565685 -0.141421
v -0.141421 0.565685 -0.000000
v -0.000000 0.565685 0.141421
v 0.141421 0.565685 0.000000
v 0.000000 0.636396 -0.070711
v -0.070711 0.636396 -0.000000
v -0.000000 0.636396 0.070711
v 0.070711 0.636396 0.000000
v 0.000000 0.000000 0.000000
v 0.000000 0.707107 0.000000
vt 0.500000 0.200000
vt 0.450000 0.250000
vt 0.500000 0.300000
vt 0.550000 0.250000
vt 0.500000 0.150000
vt 0.400000 0.250000
vt 0.500000 0.350000
vt 0.600000 0.250000
vt 0.500000 0.100000
vt 0.350000 0.250000
vt 0.500000 0.400000
vt 0.650000 0.250000
vt 0.500000 0.050000
vt 0.300000 0.250000
vt 0.500000 0.450000
vt 0.700000 0.250000
vt 0.500000 0.000000
vt 0.250000 0.250000
vt 0.500000 0.500000
vt 0.750000 0.250000
vt 0.250000 0.500000
vt 0.375000 0.500000
vt 0.500000 0.500000
vt 0.625000 0.500000
vt 0.750000 0.500000
vt 0.275000 0.550000
vt 0.387500 0.550000
vt 0.500000 0.550000
vt 0.612500 0.550000
vt 0.725000 0.550000
vt 0.300000 0.600000
vt 0.400000 0.600000
vt 0.500000 0.600000
vt 0.600000 0.600000
vt 0.700000 0.600000
vt 0.325000 0.650000
vt 0.412500 0.650000
vt 0.500000 0.650000
vt 0.587500 0.650000
vt 0.675000 0.650000
vt 0.350000 0.700000
vt 0.425000 0.700000
vt 0.500000 0.700000
vt 0.575000 0.700000
vt 0.650000 0.700000
vt 0.375000 0.750000
vt 0.437500 0.750000
vt 0.500000 0.750000
vt 0.562500 0.750000
vt 0.625000 0.750000
vt 0.400000 0.800000
vt 0.450000 0.800000
vt 0.500000 0.800000
vt 0.550000 0.800000
vt 0.600000 0.800000
vt 0.425000 0.850000
vt 0.462500 0.850000
vt 0.500000 0.850000
vt 0.537500 0.850000
vt 0.575000 0.850000
vt 0.450000 0.900000
vt 0.475000 0.900000
vt 0.500000 0.900000
vt 0.525000 0.900000
vt 0.550000 0.900000
vt 0.475000 0.950000
vt 0.487500 0.950000
vt 0.500000 0.950000
vt 0.512500 0.950000
vt 0.525000 0.950000
vt 0.500000 0.250000
vt 0.500000 1.000000
vn 0.000000 -1.000000 -0.000000
vn 0.000000 -1.000000 -0.000000
vn 0.000000 -1.000000 0.000000
vn 0.000000 -1.000000 -0.000000
vn 0.000000 -1.000000 -0.000000
vn 0.000000 -1.000000 0.000000
vn 0.000000 -1.000000 0.000000
vn 0.000000 -1.000000 -0.000000
vn 0.000000 -1.000000 -0.000000
vn 0.000000 -1.000000 -0.000000
vn 0.000000 -1.000000 0.000000
vn 0.000000 -1.000000 0.000000
vn 0.000000 -1.000000 0.000000
vn 0.000000 -1.000000 0.000000
vn 0.000000 -1.000000 0.000000
vn 0.000000 -1.000000 -0.000000
vn 0.000000 -1.000000 0.000000
vn 0.000000 -1.000000 0.000000
vn 0.000000 -1.000000 0.000000
vn 0.000000 -1.000000 -0.000000
vn -0.577350 0.577350 -0.577351
vn -0.577350 0.577350 -0.577351
vn -0.577350 0.577350 -0.577350
vn -0.577350 0.577350 -0.577350
vn -0.577350 0.577350 0.577350
vn -0.577350 0.577350 0.577350
vn -0.577350 0.577350 0.577350
vn -0.577350 0.577350 0.577350
vn 0.577350 0.577350 0.577350
vn 0.577350 0.577350 0.577350
vn 0.577350 0.577350 0.577350
vn 0.577350 0.577350 0.577350
vn 0.577350 0.577350 -0.577350
vn 0.577350 0.577350 -0.577350
vn 0.577350 0.577350 -0.577350
vn 0.577350 0.577350 -0.577350
vn -0.577350 0.577350 -0.577350
vn -0.577350 0.577350 -0.577350
vn -0.577350 0.577350 0.577350
vn -0.577350 0.577350 0.577350
vn 0.577350 0.577350 0.577350
vn 0.577350 0.577350 0.577350
vn 0.577350 0.577350 -0.577350
vn 0.577350 0.577350 -0.577350
vn -0.577350 0.577350 -0.577350
vn -0.577350 0.577350 -0.577350
vn -0.577350 0.577350 0.577350
vn -0.577350 0.577350 0.577350
vn 0.577350 0.577350 0.577350
vn 0.577350 0.577350 0.577350
vn 0.577350 0.577350 -0.577350
vn 0.577350 0.577350 -0.577350
vn -0.577350 0.577350 -0.577350
vn -0.577350 0.577350 -0.577350
vn -0.577350 0.577350 0.577350
vn -0.577350 0.577350 0.577350
vn 0.577350 0.577350 0.577350
vn 0.577350 0.577350 0.577350
vn 0.577350 0.577350 -0.577350
vn 0.577350 0.577350 -0.577350
vn -0.577350 0.577350 -0.577350
vn -0.577350 0.577350 -0.577350
vn -0.577350 0.577350 0.577350
vn -0.577350 0.577350 0.577350
vn 0.577350 0.577350 0.577350
vn 0.577350 0.577350 0.577350
vn 0.577350 0.577350 -0.577350
vn 0.577350 0.577350 -0.577350
vn -0.577350 0.577350 -0.577350
vn -0.577350 0.577350 -0.577350
vn -0.577350 0.577350 0.577350
vn -0.577350 0.577350 0.577350
vn 0.577350 0.577350 0.577350
vn 0.577350 0.577350 0.577350
vn 0.577350 0.577350 -0.577350
vn 0.577350 0.577350 -0.577350
vn -0.577350 0.577350 -0.577350
vn -0.577350 0.577350 -0.577350
vn -0.577350 0.577350 0.577350
vn -0.577350 0.577350 0.577350
vn 0.577350 0.577350 0.577350
vn 0.577350 0.577350 0.577350
vn 0.577350 0.577350 -0.577350
vn 0.577350 0.577350 -0.577350
vn -0.577350 0.577350 -0.577350
vn -0.577350 0.577350 -0.577350
vn -0.577350 0.577350 0.577350
vn -0.577350 0.577350 0.577350
vn 0.577350 0.577350 0.577350
vn 0.577350 0.577350 0.577350
vn 0.577350 0.577350 -0.577350
vn 0.577350 0.577350 -0.577350
vn -0.577350 0.577350 -0.577350
vn -0.577350 0.577350 -0.577350
vn -0.577350 0.577350 0.577350
vn -0.577350 0.577350 0.577350
vn 0.577350 0.577350 0.577350
vn 0.577350 0.577350 0.577350
vn 0.577350 0.577350 -0.577350
vn 0.577350 0.577350 -0.577350
vn 0.000000 -1.000000 -0.000000
vn -0.577350 0.577351 -0.577350
vn -0.577350 0.577351 0.577350
vn 0.577350 0.577351 0.577350
vn 0.577350 0.577351 -0.577350
f 1/1/1 2/2/2 6/6/3 5/5/4
f 2/2/2 3/3/5 7/7/6 6/6/3
f 3/3/5 4/4/7 8/8/8 7/7/6
f 4/4/7 1/1/1 5/5/4 8/8/8
f 5/5/4 6/6/3 10/10/9 9/9/10
f 6/6/3 7/7/6 11/11/11 10/10/9
f 7/7/6 8/8/8 12/12/12 11/11/11
f 8/8/8 5/5/4 9/9/10 12/12/12
f 9/9/10 10/10/9 14/14/13 13/13/14
f 10/10/9 11/11/11 15/15/15 14/14/13
f 11/11/11 12/12/12 16/16/16 15/15/15
f 12/12/12 9/9/10 13/13/14 16/16/16
f 13/13/14 14/14/13 18/18/17 17/17/18
f 14/14/13 15/15/15 19/19/19 18/18/17
f 15/15/15 16/16/16 20/20/20 19/19/19
f 16/16/16 13/13/14 17/17/18 20/20/20
f 17/21/21 18/22/22 22/27/23 21/26/24
f 18/22/25 19/23/26 23/28/27 22/27/28
f 19/23/29 20/24/30 24/29/31 23/28/32
f 20/24/33 17/25/34 21/30/35 24/29/36
f 21/26/24 22/27/23 26/32/37 25/31/38
f 22/27/28 23/28/27 27/33/39 26/32/40
f 23/28/32 24/29/31 28/34/41 27/33/42
f 24/29/36 21/30/35 25/35/43 28/34/44
f 25/31/38 26/32/37 30/37/45 29/36/46
f 26/32/40 27/33/39 31/38/47 30/37/48
f 27/33/42 28/34/41 32/39/49 31/38/50
f 28/34/44 25/35/43 29/40/51 32/39/52
f 29/36/46 30/37/45 34/42/53 33/41/54
f 30/37/48 31/38/47 35/43/55 34/42/56
f 31/38/50 32/39/49 36/44/57 35/43/58
f 32/39/52 29/40/51 33/45/59 36/44/60
f 33/41/54 34/42/53 38/47/61 37/46/62
f 34/42/56 35/43/55 39/48/63 38/47/64
f 35/43/58 36/44/57 40/49/65 39/48/66
f 36/44/60 33/45/59 37/50/67 40/49/68
f 37/46/62 38/47/61 42/52/69 41/51/70
f 38/47/64 39/48/63 43/53/71 42/52/72
f 39/48/66 40/49/65 44/54/73 43/53/74
f 40/49/68 37/50/67 41/55/75 44/54/76
f 41/51/70 42/52/69 46/57/77 45/56/78
f 42/52/72 43/53/71 47/58/79 46/57/80
f 43/53/74 44/54/73 48/59/81 47/58/82
f 44/54/76 41/55/75 45/60/83 48/59/84
f 45/56/78 46/57/77 50/62/85 49/61/86
f 46/57/80 47/58/79 51/63/87 50/62/88
f 47/58/82 48/59/81 52/64/89 51/63/90
f 48/59/84 45/60/83 49/65/91 52/64/92
f 49/61/86 50/62/85 54/67/93 53/66/94
f 50/62/88 51/63/87 55/68/95 54/67/96
f 51/63/90 52/64/89 56/69/97 55/68/98
f 52/64/92 49/65/91 53/70/99 56/69/100
f 2/2/2 1/1/1 57/71/101
f 3/3/5 2/2/2 57/71/101
f 4/4/7 3/3/5 57/71/101
f 1/1/1 4/4/7 57/71/101
f 53/66/94 54/67/93 58/72/102
f 54/67/96 55/68/95 58/72/103
f 55/68/98 56/69/97 58/72/104
f 56/69/100 53/70/99 58/72/105
v 0.000000 0.000000 -0.141421
v -0.141421 0.000000 -0.000000
v -0.000000 0.000000 0.141421
v 0.141421 0.000000 0.000000
v 0.000000 0.000000 -0.282843
v -0.282843 0.000000 -0.000000
v -0.000000 0.000000 0.282843
v 0.282843 0.000000 0.000000
v 0.000000 0.000000 -0.424264
v -0.424264 0.000000 -0.000000
v -0.000000 0.000000 0.424264
v 0.424264 0.000000 0.000000
v 0.000000 0.000000 -0.565685
v -0.565685 0.000000 -0.000000
v -0.000000 0.000000 0.565685
v 0.565685 0.000000 0.000000
v 0.000000 0.000000 -0.707107
v -0.707107 0.000000 -0.000000
v -0.000000 0.000000 0.707107
v 0.707107 0.000000 0.000000
v 0.000000 0.070711 -0.636396
v -0.636396 0.070711 -0.000000
v -0.000000 0.070711 0.636396
v 0.636396 0.070711 0.000000
v 0.000000 0.141421 -0.565685
v -0.565685 0.141421 -0.000000
v -0.000000 0.141421 0.565685
v 0.565685 0.141421 0.000000
v 0.000000 0.212132 -0.494975
v -0.494975 0.212132 -0.000000
v -0.000000 0.212132 0.494975
v 0.494975 0.212132 0.000000
v 0.000000 0.282843 -0.424264
v -0.424264 0.282843 -0.000000
v -0.000000 0.282843 0.424264
v 0.424264 0.282843 0.000000
v 0.000000 0.353553 -0.353553
v -0.353553 0.353553 -0.000000
v -0.000000 0.353553 0.353553
v 0.353553 0.353553 0.000000
v 0.000000 0.424264 -0.282843
v -0.282843 0.424264 -0.000000
v -0.000000 0.424264 0.282843
v 0.282843 0.424264 0.000000
v 0.000000 0.494975 -0.212132
v -0.212132 0.494975 -0.000000
v -0.000000 0.494975 0.212132
v 0.212132 0.494975 0.000000
v 0.000000 0.565685 -0.141421
v -0.141421 0.565685 -0.000000
v -0.000000 0.565685 0.141421
v 0.141421 0.565685 0.000000
v 0.000000 0.636396 -0.070711
v -0.070711 0.636396 -0.000000
v -0.000000 0.636396 0.070711
v 0.070711 0.636396 0.000000
v 0.000000 0.000000 0.000000
v 0.000000 0.707107 0.000000
vt 0.500000 0.200000
vt 0.450000 0.250000
vt 0.500000 0.300000
vt 0.550000 0.250000
vt 0.500000 0.150000
vt 0.400000 0.250000
vt 0.500000 0.350000
vt 0.600000 0.250000
vt 0.500000 0.100000
vt 0.350000 0.250000
vt 0.500000 0.400000
vt 0.650000 0.250000
vt 0.500000 0.050000
vt 0.300000 0.250000
vt 0.500000 0.450000
vt 0.700000 0.250000
vt 0.500000 0.000000
vt 0.250000 0.250000
vt 0.500000 0.500000
vt 0.750000 0.250000
vt 0.250000 0.500000
vt 0.375000 0.500000
vt 0.500000 0.500000
vt 0.625000 0.500000
vt 0.750000 0.500000
vt 0.275000 0.550000
vt 0.387500 0.550000
vt 0.500000 0.550000
vt 0.612500 0.550000
vt 0.725000 0.550000
vt 0.300000 0.600000
vt 0.400000 0.600000
vt 0.500000 0.600000
vt 0.600000 0.600000
vt 0.700000 0.600000
vt 0.325000 0.650000
vt 0.412500 0.650000
vt 0.500000 0.650000
vt 0.587500 0.650000
vt 0.675000 0.650000
vt 0.350000 0.700000
vt 0.425000 0.700000
vt 0.500000 0.700000
vt 0.575000 0.700000
vt 0.650000 0.700000
vt 0.375000 0.750000
vt 0.437500 0.750000
vt 0.500000 0.750000
vt 0.562500 0.750000
vt 0.625000 0.750000
vt 0.400000 0.800000
vt 0.450000 0.800000
vt 0.500000 0.800000
vt 0.550000 0.800000
vt 0.600000 0.800000
vt 0.425000 0.850000
vt 0.462500 0.850000
vt 0.500000 0.850000
vt 0.537500 0.850000
vt 0.575000 0.850000
vt 0.450000 0.900000
vt 0.475000 0.900000
vt 0.500000 0.900000
vt 0.525000 0.900000
vt 0.550000 0.900000
vt 0.475000 0.950000
vt 0.487500 0.950000
vt 0.500000 0.950000
vt 0.512500 0.950000
vt 0.525000 0.950000
vt 0.500000 0.250000
vt 0.500000 1.000000
vn 0.000000 -1.000000 -0.000000
vn 0.000000 -1.000000 -0.000000
vn 0.000000 -1.000000 0.000000
vn 0.000000 -1.000000 -0.000000
vn 0.000000 -1.000000 -0.000000
vn 0.000000 -1.000000 0.000000
vn 0.000000 -1.000000 0.000000
vn 0.000000 -1.000000 -0.000000
vn 0.000000 -1.000000 -0.000000
vn 0.000000 -1.000000 -0.000000
vn 0.000000 -1.000000 0.000000
vn 0.000000 -1.000000 0.000000
vn 0.000000 -1.000000 0.000000
vn 0.000000 -1.000000 0.000000
vn 0.000000 -1.000000 0.000000
vn 0.000000 -1.000000 -0.000000
vn 0.000000 -1.000000 0.000000
vn 0.000000 -1.000000 0.000000
vn 0.000000 -1.000000 0.000000
vn 0.000000 -1.000000 -0.000000
vn -0.577350 0.577350 -0.577351
vn -0.577350 0.577350 -0.577351
vn -0.577350 0.577350 -0.577350
vn -0.577350 0.577350 -0.577350
vn -0.577350 0.577350 0.577350
vn -0.577350 0.577350 0.577350
vn -0.577350 0.577350 0.577350
vn -0.577350 0.577350 0.577350
vn 0.577350 0.577350 0.577350
vn 0.577350 0.577350 0.577350
vn 0.577350 0.577350 0.577350
vn 0.577350 0.577350 0.577350
vn 0.577350 0.577350 -0.577350
vn 0.577350 0.577350 -0.577350
vn 0.577350 0.577350 -0.577350
vn 0.577350 0.577350 -0.577350
vn -0.577350 0.577350 -0.577350
vn -0.577350 0.577350 -0.577350
vn -0.577350 0.577350 0.577350
vn -0.577350 0.577350 0.577350
vn 0.577350 0.577350 0.577350
vn 0.577350 0.577350 0.577350
vn 0.577350 0.577350 -0.577350
vn 0.577350 0.577350 -0.577350
vn -0.577350 0.577350 -0.577350
vn -0.577350 0.577350 -0.577350
vn -0.577350 0.577350 0.577350
vn -0.577350 0.577350 0.577350
vn 0.577350 0.577350 0.577350
vn 0.577350 0.577350 0.577350
vn 0.577350 0.577350 -0.577350
vn 0.577350 0.577350 -0.577350
vn -0.577350 0.577350 -0.577350
vn -0.577350 0.577350 -0.577350
vn -0.577350 0.577350 0.577350
vn -0.577350 0.577350 0.577350
vn 0.577350 0.577350 0.577350
vn 0.577350 0.577350 0.577350
vn 0.577350 0.577350 -0.577350
vn 0.577350 0.577350 -0.577350
vn -0.577350 0.577350 -0.577350
vn -0.577350 0.577350 -0.577350
vn -0.577350 0.577350 0.577350
vn -0.577350 0.577350 0.577350
vn 0.577350 0.577350 0.577350
vn 0.577350 0.577350 0.577350
vn 0.577350 0.577350 -0.577350
vn 0.577350 0.577350 -0.577350
vn -0.577350 0.577350 -0.577350
vn -0.577350 0.577350 -0.577350
vn -0.577350 0.577350 0.577350
vn -0.577350 0.577350 0.577350
vn 0.577350 0.577350 0.577350
vn 0.577350 0.577350 0.577350
vn 0.577350 0.577350 -0.577350
vn 0.577350 0.577350 -0.577350
vn -0.577350 0.577350 -0.577350
vn -0.577350 0.577350 -0.577350
vn -0.577350 0.577350 0.577350
vn -0.577350 0.577350 0.577350
vn 0.577350 0.577350 0.577350
vn 0.577350 0.577350 0.577350
vn 0.577350 0.577350 -0.577350
vn 0.577350 0.577350 -0.577350
vn -0.577350 0.577350 -0.577350
vn -0.577350 0.577350 -0.577350
vn -0.577350 0.577350 0.577350
vn -0.577350 0.577350 0.577350
vn 0.577350 0.577350 0.577350
vn 0.577350 0.577350 0.577350
vn 0.577350 0.577350 -0.577350
vn 0.577350 0.577350 -0.577350
vn -0.577350 0.577350 -0.577350
vn -0.577350 0.577350 -0.577350
vn -0.577350 0.577350 0.577350
vn -0.577350 0.577350 0.577350
vn 0.577350 0.577350 0.577350
vn 0.577350 0.577350 0.577350
vn 0.577350 0.577350 -0.577350
vn 0.577350 0.577350 -0.577350
vn 0.000000 -1.000000 -0.000000
vn -0.577350 0.577351 -0.577350
vn -0.577350 0.577351 0.577350
vn 0.577350 0.577351 0.577350
vn 0.577350 0.577351 -0.577350
f 59/73/106 60/74/107 64/78/108 63/77/109
f 60/74/107 61/75/110 65/79/111 64/78/108
f 61/75/110 62/76/112 66/80/113 65/79/111
f 62/76/112 59/73/106 63/77/109 66/80/113
f 63/77/109 64/78/108 68/82/114 67/81/115
f 64/78/108 65/79/111 69/83/116 68/82/114
f 65/79/111 66/80/113 70/84/117 69/83/116
f 66/80/113 63/77/109 67/81/115 70/84/117
f 67/81/115 68/82/114 72/86/118 71/85/119
f 68/82/114 69/83/116 73/87/120 72/86/118
f 69/83/116 70/84/117 74/88/121 73/87/120
f 70/84/117 67/81/115 71/85/119 74/88/121
f 71/85/119 72/86/118 76/90/122 75/89/123
f 72/86/118 73/87/120 77/91/124 76/90/122
f 73/87/120 74/88/121 78/92/125 77/91/124
f 74/88/121 71/85/119 75/89/123 78/92/125
f 75/93/126 76/94/127 80/99/128 79/98/129
f 76/94/130 77/95/131 81/100/132 80/99/133
f 77/95/134 78/96/135 82/101/136 81/100/137
f 78/96/138 75/97/139 79/102/140 82/101/141
f 79/98/129 80/99/128 84/104/142 83/103/143
f 80/99/133 81/100/132 85/105/144 84/104/145
f 81/100/137 82/101/136 86/106/146 85/105/147
f 82/101/141 79/102/140 83/107/148 86/106/149
f 83/103/143 84/104/142 88/109/150 87/108/151
f 84/104/145 85/105/144 89/110/152 88/109/153
f 85/105/147 86/106/146 90/111/154 89/110/155
f 86/106/149 83/107/148 87/112/156 90/111/157
f 87/108/151 88/109/150 92/114/158 91/113/159
f 88/109/153 89/110/152 93/115/160 92/114/161
f 89/110/155 90/111/154 94/116/162 93/115/163
f 90/111/157 87/112/156 91/117/164 94/116/165
f 91/113/159 92/114/158 96/119/166 95/118/167
f 92/114/161 93/115/160 97/120/168 96/119/169
f 93/115/163 94/116/162 98/121/170 97/120/171
f 94/116/165 91/117/164 95/122/172 98/121/173
f 95/118/167 96/119/166 100/124/174 99/123/175
f 96/119/169 97/120/168 101/125/176 100/124/177
f 97/120/171 98/121/170 102/126/178 101/125/179
f 98/121/173 95/122/172 99/127/180 102/126/181
f 99/123/175 100/124/174 104/129/182 103/128/183
f 100/124/177 101/125/176 105/130/184 104/129/185
f 101/125/179 102/126/178 106/131/186 105/130/187
f 102/126/181 99/127/180 103/132/188 106/131/189
f 103/128/183 104/129/182 108/134/190 107/133/191
f 104/129/185 105/130/184 109/135/192 108/134/193
f 105/130/187 106/131/186 110/136/194 109/135/195
f 106/131/189 103/132/188 107/137/196 110/136/197
f 107/133/191 108/134/190 112/139/198 111/138/199
f 108/134/193 109/135/192 113/140/200 112/139/201
f 109/135/195 110/136/194 114/141/202 113/140/203
f 110/136/197 107/137/196 111/142/204 114/141/205
f 60/74/107 59/73/106 115/143/206
f 61/75/110 60/74/107 115/143/206
f 62/76/112 61/75/110 115/143/206
f 59/73/106 62/76/112 115/143/206
f 111/138/199 112/139/198 116/144/207
f 112/139/201 113/140/200 116/144/208
f 113/140/203 114/141/202 116/144/209
f 114/141/205 111/142/204 116/144/210
